<mxfile host="Electron" modified="2025-02-01T13:38:12.822Z" agent="Mozilla/5.0 (X11; Linux x86_64) AppleWebKit/537.36 (KHTML, like Gecko) draw.io/24.2.5 Chrome/120.0.6099.109 Electron/28.1.0 Safari/537.36" etag="s8wh0Kj4rjbuWHnSN0C7" version="24.2.5" type="device">
  <diagram name="Page-1" id="6E9S7PUCd5_ZloGBl8bo">
    <mxGraphModel dx="2914" dy="1362" grid="1" gridSize="10" guides="1" tooltips="1" connect="1" arrows="1" fold="1" page="1" pageScale="1" pageWidth="850" pageHeight="1100" math="0" shadow="0">
      <root>
        <mxCell id="0" />
        <mxCell id="1" parent="0" />
        <mxCell id="jaUyPP5_AFXgE-HcXvKc-2" value="" style="rounded=1;whiteSpace=wrap;html=1;fillColor=#f5f5f5;fontColor=#333333;strokeColor=#666666;" parent="1" vertex="1">
          <mxGeometry x="-40" y="271" width="1340" height="340" as="geometry" />
        </mxCell>
        <mxCell id="jaUyPP5_AFXgE-HcXvKc-3" value="clk_in" style="text;html=1;align=center;verticalAlign=middle;resizable=0;points=[];autosize=1;strokeColor=none;fillColor=none;" parent="1" vertex="1">
          <mxGeometry x="10" y="321" width="50" height="30" as="geometry" />
        </mxCell>
        <mxCell id="jaUyPP5_AFXgE-HcXvKc-4" value="reset_int" style="text;html=1;align=center;verticalAlign=middle;resizable=0;points=[];autosize=1;strokeColor=none;fillColor=none;" parent="1" vertex="1">
          <mxGeometry x="-10" y="345" width="70" height="30" as="geometry" />
        </mxCell>
        <mxCell id="jaUyPP5_AFXgE-HcXvKc-5" value="PSEL" style="text;html=1;align=center;verticalAlign=middle;resizable=0;points=[];autosize=1;strokeColor=none;fillColor=none;" parent="1" vertex="1">
          <mxGeometry x="10" y="391" width="50" height="30" as="geometry" />
        </mxCell>
        <mxCell id="jaUyPP5_AFXgE-HcXvKc-6" value="PENABLE" style="text;html=1;align=center;verticalAlign=middle;resizable=0;points=[];autosize=1;strokeColor=none;fillColor=none;" parent="1" vertex="1">
          <mxGeometry x="-19" y="414" width="80" height="30" as="geometry" />
        </mxCell>
        <mxCell id="jaUyPP5_AFXgE-HcXvKc-7" value="PADDR" style="text;html=1;align=center;verticalAlign=middle;resizable=0;points=[];autosize=1;strokeColor=none;fillColor=none;" parent="1" vertex="1">
          <mxGeometry x="-1" y="436" width="60" height="30" as="geometry" />
        </mxCell>
        <mxCell id="jaUyPP5_AFXgE-HcXvKc-8" value="PWRITE" style="text;html=1;align=center;verticalAlign=middle;resizable=0;points=[];autosize=1;strokeColor=none;fillColor=none;" parent="1" vertex="1">
          <mxGeometry x="-9" y="459" width="70" height="30" as="geometry" />
        </mxCell>
        <mxCell id="jaUyPP5_AFXgE-HcXvKc-9" value="PWDATA" style="text;html=1;align=center;verticalAlign=middle;resizable=0;points=[];autosize=1;strokeColor=none;fillColor=none;" parent="1" vertex="1">
          <mxGeometry x="-10" y="480" width="70" height="30" as="geometry" />
        </mxCell>
        <mxCell id="jaUyPP5_AFXgE-HcXvKc-11" value="PREADY" style="text;html=1;align=center;verticalAlign=middle;resizable=0;points=[];autosize=1;strokeColor=none;fillColor=none;" parent="1" vertex="1">
          <mxGeometry x="-9" y="527" width="70" height="30" as="geometry" />
        </mxCell>
        <mxCell id="jaUyPP5_AFXgE-HcXvKc-13" value="PSLVERR" style="text;html=1;align=center;verticalAlign=middle;resizable=0;points=[];autosize=1;strokeColor=none;fillColor=none;" parent="1" vertex="1">
          <mxGeometry x="-19" y="551" width="80" height="30" as="geometry" />
        </mxCell>
        <mxCell id="1ntysVnzsI7zX7W5AdYp-1" value="" style="shape=image;verticalLabelPosition=bottom;labelBackgroundColor=default;verticalAlign=top;aspect=fixed;imageAspect=0;image=data:image/png,iVBORw0KGgoAAAANSUhEUgAABLkAAAEaCAYAAAD9i4UqAAAABHNCSVQICAgIfAhkiAAAABl0RVh0U29mdHdhcmUAZ25vbWUtc2NyZWVuc2hvdO8Dvz4AAAAtdEVYdENyZWF0aW9uIFRpbWUAU2F0IDAxIEZlYiAyMDI1IDAyOjM3OjQyIFBNIENFVG16puAAACAASURBVHic7d1/lJTlfT/8zywrcATBiIgIyGJtQqrBHPI8qY/6LVS0VrRK4hMTTdrTH1Ybf6R7ThttyzlW88SDrfYbWjlfJOGsJIbUHH8eLGoEFY7kl1VSIcsPRXcIKCAa0zSaEMHr+YNls8DMsruzO3PfM6+X53Nght25rnlz3fd97ceZISIiVbNaWlqrOl49lMxkJrNslsxkJrNslsxkJrNslszkJbPslcxkVm+ZNQUAAAAA5JwmFwAAAAC51+cm11FHHRXz5s2Ljo6O2Lx5c3zlK1+Jpqb9D3PhhRfGxo0bo6OjIxYsWBCFQmEw5pwrQ4cOjQULFsSGDRti8+bNsXjx4hg2bFiEvI7o3nvvjTVr1nTdlldpTz/9dGzbti2KxWIUi8UYO3ZshLzKGj16dLS1tcXmzZtjw4YNMXny5Ah5lTRnzpyudVUsFmPHjh2xevXqCHmV9clPfjLWrl0bL774Ynz1q191vj+CG264ITZt2hQbN26MO+64I4YMGRIhr4OccsopsXTp0vjpT3960P3lMmr07Mrl1dccG0WpXOz1yyuVl71+eeWOuwPs9Q9WLi97/dLK5WWvX1qpvOp5r9+39zc2NaU//dM/TcOGDUvNzc1p1apV6aKLLkrDhw9PHR0dqaWlJR1zzDEppZSuuOIK71+NSB//+MdToVBITU1N6Zlnnkmf+MQnep1Xo2Y2c+bM9J3vfCetWbMmRUSf8mq0zF588cV03HHHHXRfX/NqpMzuv//+dMstt6RCoVBRXo2U2YG68cYb0z/8wz/0O696z6xQKKS33norHX/88Ski0re+9a10xRVXVJRXPWd2+umnp/Xr16cRI0akpqam9M1vfjN95jOfqTivesvsq1/9arrsssvS66+/3nVfuYwcm6Xz6muOjbTOSuVS6V6/njMrt74q3es3Wl4xAHv9esysXF4Dtdevt8zK5TWQe/16yqyn4/FADcRePyOZVfYAbW1t6dOf/nQ6++yz07e//e0UEenWW29NK1asSF//+tfLPrlTTz01rVq1Ki1ZsiQtW7Ysfe9730snn3xyiog0a9as9Nxzz6UXX3wxvfDCC2n06NE1XxQDURMnTkzr1q1LH/zgB3ud14HMGimvoUOHpu9///vp937v97oufH3JKyLSjBlfbpi8Ojo6DjqJ9yevU089Nf3gB1vqPq9x48alzZs3D0heq1atSg888Fxd59W9mpqa0qZNm9KJJ57Y77yWLFmSVq78cV3ntWXLlnTKKaekQqGQHnvssTRr1qyK8lq2bFl64YWOuszrsssuS3fffXfX7RkzZqT777+/4ry+973vpbPOurXu8tq9e3fX78tl5NgsnVdfc+ztWqunY7NcXtGPvX65vOrp2CyXV3/3+o2W10Ds9cv9bNTS0lp3eQ3UXr/cz0af/ez/qZu8BnqvX+5noxdf3FoXeXWvgdrrl/vZaOPG16qZV/+/edSoUWnr1q1p4sSJ6VOf+lT6l3/5l3TyySen9evXpw9/+MNp5cqVh31P9ybX3r1705QpU1JEpLlz56bbbrstRURavnx5Ouuss1J0dl1rvRAqrbFjx6Zt27alPXv2pOuuuy5FRK/zim5NrkbJa+7cuen6669PU6dO7brw9SWv6GxyNUpe27dvT2vWrEnr169PN910U7/y2r++9tV9Xn/wB3+Qli9fnpYuXZpWr16dFi9enEaNGtXPvPam//W//r+6zqt7XXjhhenBBx+sYH3tPx5bWlrrOq/f/d3fTa+++mr6/ve/n/76r/+64rwiIt155/K6zGvq1Klp7dq16eijj05DhgxJixYtSs8880zFec2dOzctWLCi7vJ68803u35fLiPHZum8+ppjb9daPR2b5fLqz16/XF71dGwemlele/1Gy2sg9vrlfjZqaWmtu7wGbq9f+mejp5/eUDd5DfRev9zPRpdd9q91kVf3Gqi9fqm8zjrrrNTS0lq1vPr9wfNDhgyJJUuWxN133x3bt2+PiIjm5ua48847Y+7cubFv37547733enyMV199NTo6OiIiYuvWrXHCCSdERERbW1ssXLgw/uzP/izef//9/k4xM3bv3h2TJk2KCRMmxOWXXx6XXHJJhLxKmjJlSsyePTsWLlx42J/Jq7RJkybFOeecE+eee25ceeWVMWfOnIh+5LVt21t1n9fo0aPjtNNOi7lz58aMGTPi5Zdfjptvvjmin+tr27a3Iuo4r+6uvfbaWLRoUddtx2Np11xzTTz88MNx3333xR//8R/H+PHjIyrMa/v2t+syr02bNsWCBQvi8ccfjxUrVsSbb74ZP//5zyMGYH0df/zIiDrL61DlMnJs9o1js7zB2OvX67E5WHv9eszLXr/vBmqvXy6v++//Yd3kNdB7/XLr68tf/n/rIq/uBnuv/6lPfbxqefWryVUoFGLx4sXxxhtvxLx58yIiYtu2bfG5z30uRo0aFcuWLYvJkyfHa6+91uPjvPvuu4c9bkTEgw8+GOedd15MmTIlXnjhhTj22GP7M83MefPNN+OBBx6IWbNmyauMiy++OCZOnBjt7e3x2GOPxfTp0+Opp56SVw9SShGdG6yHHnooPvrRj/Yrr1/+8uATVz3mtWvXrnj22WejWCxGRMSTTz4ZZ5xxhvV1BJMnT46pU6fGihUrIpzvy5o2bVp8+MMfjr/5m7+Jf/3Xf41FixbFjTfeKK8etLW1xYwZM+Lcc8+Nd999N370ox8NSF4H1FteB5TLyFrrG3mVN1h7/QPqLa8DBnqvf0A95WWv33cDtdcvl9fjj79YN3lVa6//2c8urIu8DqjGXn/SpDFVy6vPTa5CoRCLFi2Kffv2xec///mu+9euXRvHHXdcLFy4MIYMGRLXXXddPProo/2a1Lhx42L37t1x8803x9tvvx2nnXZavx4nC8aMGROnnnpqREQMHz48LrrootiwYYO8yrjrrru6DrLZs2fH2rVrY9asWfIqY8SIEXHSSSdFRMSoUaPivPPOi3Xr1smrjOeffz6mT58eEyZMiIiI888/P9rb2+V1BNdcc020tbV1bbLkVVpKKUaPHh1Dhw6NiIjx48fH+++/L69emDZtWlx99dVxzz33yKsXymUku76RV2n2+n1jr9839vp9U429/vHHH1M3eVVrr//Tn/6iLvI6oBp7/f/9vx+vWl59bnKdffbZ8Zd/+ZfxR3/0R7Fjx47YuXNnrFy5Mn7961/H+eefH3fccUe8/vrr0dHREcuWLevXpA78M7wvvPBCbNu2LX74wx/263GyYOTIkXHffffF9u3b4+WXX46XXnopFi9eLK8+kldpRx99dDzyyCNRLBZj/fr18fTTT8dDDz0krzLefffd+MIXvhCPPvpobNy4MWbMmBFf+tKX5NWDoUOHxp/8yZ/EPffc03WfvEpbv359fO1rX4s1a9bEf/3Xf8Vpp50Wt9xyi7x6cPvtt0d7e3ssXrw4rrzyyti6dau8DnHttdfGE088EWPGjIknnngirrrqqrIZya50XuXul1fpXOz1yyuVl71+eeWOx1LkVTqvauz1v/Sly+omr2rt9Ves+Lu6yCuquNd/9NG/qWpeVf2gszz+c5u1LpnJTGbZLJnJTGbZLJnJTGbZLJnJS2bZK5nJrN4y6/cHzwMAAABAVhQ6O2oAAAAAkCvF4vyDbvfpZWSD+eceO1tj5/Wx6/V5ySxbj12vz0tm2Xrsen1eMsvWY9fr85JZth67Xp9XrR67Hp9TnsfO62PX6/OSWbYeu9pje7siAAAAALmnyQUAAABA7mlyAQAAAJB7mlwAAAAA5J4mFwAAAAC5p8kFAAAAQO5pcgEAAABQF1I1q6Wltarj1UPJTGYyy2bJTGYyy2bJTGYyy2bJTF4yy17JTGb1lplXcgEAAACQe5pcAAAAANSFw1/idaT/Vh3hJWKD9b1H+v7BnHctxzbvbI1t3tka27yzNbZ5Z2ts887W2OadrbHNO1tjm3e2xjbvbI1t3tka27yzNfYhf1b6lVyrI6LQQx1JT99fyfce6fsHc961HNu8szW2eWdrbPPO1tjmna2xzTtbY5t3tsY272yNbd6HVcuU1pqNXdH31uvfdS3HNu9sjW3e2Ru7G29XBAAAACD3NLkAAAAAyD1NLgAAAAByT5MLAAAAgNzT5AIAAAAg9zS5AAAAAMg9TS4AAAAAck+TCwAAAIDc0+QCAAAAIPc0uQAAAADIPU0uAAAAAHJPkwsAAACA3NPkAgAAACD3NLkAAAAAyD1NLgAAAAByrzlu6cd3rYro1/dV+r2NOrZ5N87YeZ13Lcc278YZO6/zruXY5t04Y+d13rUc27wbZ+y8zruWY5t344yd13nXcmzzzvzYqZrV0tJa1fHqoWQmM5lls2QmM5lls2QmM5lls2QmL5llr2Qms3rLrNA5GAAAAADkSrE4/6DbddvBq5eSmcxkls2Smcxkls2Smcxkls2Smbxklr2SmczqLTMfPA8AAABA7mlyAQAAAJB7hUiRaj0JAAAAAOizwm9+2xSFzjuqVC1TWqs6Xj2UzGQms2yWzGQms2yWzGQms2yWzOQls+yVzGRWF5lF9yYXAAAAAOScJhcAAAAAuafJBQAAAEDuaXIBAAAAkHuaXAAAAADkniYXAAAAALmnyQUAAABA7mlyAQAAAJB7mlwAAAAA5J4mFwAAAAC5p8kFAAAAQO5pcgEAAACQe5pcAAAAAOSeJhcAAAAAuafJBQAAAEDuaXIBAAAAkHuaXAAAAADkXqGlpTXVehIAAAAA0FfF4vyDbqdqVmdTTclMZhkrmclMZtksmclMZtksmclMXtkrmclMZtmsambm7YoAAAAA5J4mFwAAAAC5p8kFAAAAQO5pcgEAAACQe5pcAAAAAOSeJhcAAAAAuafJBQAAAEDuaXIBAAAAkHuaXAAAAADkniYXAAAAALmnyQUAAABA7mlyAQAAAJB7mlwAAAAA5J4mFwAAAAC5p8kFAAAAQO5pcgEAAACQe5pcAAAAAOSeJhcAAAAAuafJBQAAAEDuaXIBAAAAkHuaXAAAAADkXqGlpTXVehIAAAAA0FfF4vyDbqdqVmdTTclMZhkrmclMZtksmclMZtksmclMXtkrmclMZtmsambm7YoAAAAA5J4mFwAAAAC5V/UmV7Fjfu1eJLeq2s+2mwrmXXFmtXzeeVXzF3RWv4pL5vciGKjh+cy5jHrnGkDWVbrOXAPojVqtMeuMPKjhXqGS42PQ+0DdVP+VXKsjolCjqqUKnnfLlNb8Pu+8quU6bcTjg3yp1fkM6l2j7pHIjwrXqGsAveLnJigvr3uFwZ53N96uCAAAAEDuaXIBAAAAkHuaXAAAAADkniYXAAAAALmnyQUAAABA7mlyAQAAAJB7mlwAAAAA5J4mFwAAAAC5p8kFAAAAQO5pcgEAAACQe5pcAAAAAOSeJhcAAAAAuafJBQAAAEDuaXIBAAAAkHuaXAAAAADkXnPcUuspVNGqiIZ6vgc04PMuxvxaTyF/GnCdVMo6q7IGXaPWWd/JrB8a9PiqhHVWZQ24Rq2xGrDO6IWGzSxHx0eqZrW0tFZ1vHoomclMZtksmclMZtksmclMZtksmclLZtkrmcms3jIrdA4GAAAAALlSLB786rq67eDVS8lMZjLLZslMZjLLZslMZjLLZslMXjLLXslMZvWWmQ+eBwAAACD3NLkAAAAAyL2mar9Qrbikwn+JoJLxVw1UbNVV7JjfkM87t2r5d1XLYxN6oaLzmXMZlFfr/Rn0gmsAg83PTdCDCvcKNT0+jjS3bpqiEFHVqtTqGo5dK5U85zw/77yq5RptxOODfLFGYXDYK5AHrgEMNudCKC/Px8eR5t6NtysCAAAAkHuaXAAAAADkniYXAAAAALmnyQUAAABA7mlyAQAAAJB7mlwAAAAA5J4mFwAAAAC5p8kFAAAAQO5pcgEAAACQe5pcAAAAAOSeJhcAAAAAuafJBQAAAEDuaXIBAAAAkHuaXAAAAADkniYXAAAAALlXiIhU1RFvqfD7Z3ZWLcaulUqec+T4eedVLddoIx4f5Is1CoPDXoE8cA1gsDkXQnl5Pj76OPdUzWppaa3qePVQMpOZzLJZMpOZzLJZMpOZzLJZMpOXzLJXMpNZvWVW6BwMAAAAAHKlWJx/0O267eDVS8lMZjLLZslMZjLLZslMZjLLZslMXjLLXslMZvWWmQ+eBwAAACD3atPk0lojy2q9Pms9PgDV59xPXlirDCbrC6hQc7UHTEPej3gsIi6o9sj5VYz5vfgquut3ZikinoyIiyNi70DPqheaI+I/anN8WGd9J7O+k1nfyazvcpdZra890FsV7lNyd2zWWMPl5VwIDICq98r3HfeLiP+OiILqbbVMaa35HPJW/c6sKfavz7HVPjI6jY2aHR/Wmcxkls2SWQNkVutrD/RWhfuU3B2bNa6Gy8u5EBgAVW9y7T3+vyN2VntU6IOdEXFijcY+MRwfAI2oltce6C37FAabcyFQoRo0uX4esaPao0If7Khxk8vxAdB4anntgd6yT2GwORcCFap+k2vM//g/QGTbzogYV6Oxx/k/pAANqZbXHugt+xQGm3MhUKHavJJrV7VHhT7YVeNXcjk+ABpPLa890Fv2KQw250KgQtVvco39edf/Abrwwgtj48aN0dHREQsWLIhCodDj/Qfce++9sWbNmmpPnUaxMyLG/+ZmX9fpkdZvj8aH4wOgEdXy2gO9ZZ/CYKvwXDhz5oedC4FI1azmB49JMT7S8OHDU0dHR2ppaUnHHHNMSimlK664ouz9B75/5syZ6Tvf+U5as2ZNVeddy2ppaa35HPJWFWU2PlJ8e//v+7pOj7R+j1jfjpodH9ZZlddZg5bMZCazMlXLa09eM6txNWRmFe5TPvOZBQ23j6+kGnKNVXgu3LbtrYrOhY1YDbnOZFbXmVX3lVzDIvYe9z8RP4v42Mc+Fs8991wUi8X427/921i5cmX84R/+Ydn7IyKGDh0a8+bNi9tuu62q06bB/CwiTti/Xvu6Tntav0c0rHNcxwdA46nVtQd6awD2KTfeeLF9Cj2r8Fz44os/cS6EBlfdJtexEZEKEcdEnHTSSbF9+/Y4+eST45Of/GR84QtfiAkTJpS9PyLii1/8YixdujTeeOONqk6bBjOqswc8uu/rtKf1e0THdo7r+ABoPLW69kBvDcA+5ZFHXrBPoWcVngt37PiZcyE0uOo2ucZGNP26OWLs/pvNzc1x5513xty5c2Pfvn3x3nvvlb1/ypQpMXv27Fi4cGFVp0wDGhsRe6Jf67Sn+wdzXMcHQM7V6toDvTUA+5SlS79b2+dA9lV8LmxyLoQGV90m1wkRTe8OjzghYtu2bfG5z30uRo0aFcuWLYvJkyfHa6+9Vvb+iy++OCZOnBjt7e3x2GOPxfTp0+Opp56q6vRpECdExP9Ev9ZpufsHe1zHB0DO1eraA701APuUJ5+8yT6FnlV4Lpwz5/9yLgSq+IFjn440dMkJKS6PNHTo0JRSSpdeemkaMmRIeuSRR9Kll15a9v7ujzN16tSG+sBKH2xX5cw+HSm+Gv1ap71Zv4MxbvfH6e/xYZ1VeZ01aMlMZjIrU7W69uQ5sxpXw2U2APuUlpbWhtvHV1INt8ai9ufCRqyGXGcyq+vMqv52xea3R0aMjfj1r38d559/ftxxxx3x+uuvR0dHRyxbtqzs/VA1YyNid/RrnVa0fisYF4Ccq9W1B3rLPoVqqPBc+LnPLbT+gCp28G6NNOrvp6e4pfadxDyVTnGVM7s1UlwX1V+ntRp3IDJr0JKZzGSWzcplZq4BuauGy2wA1mjDZVZhNWReFa6zhsyswpKZzOots6p/JtdRrx+3/73WkFUnRMTWqP46rdW4ANSeawBZZ41SDdYZUKGqv11x6E/Gdv1rGZBJYyPilaj+Oq3VuADUnmsAWWeNUg3WGVChQqRIVRkpRcSTEZOvvz62LlgQcUFVRoW+6VyncUlELIvqrdNajQtA7bkGkHXWKNVgnQF9VSh9d/Xei9nU+V7Mptq/JzRP5T2/Vc6s6ZBfq1W1GncgMmvQkpnMZJbNymVmrgG5q4bLbADWaMNlVmE1ZF4VrrOGzKzCkpnM6i2zQudgAAAAAJArxeL8g27XbQevXkpmMpNZNktmMpNZNktmMpNZNktm8pJZ9kpmMqu3zKr7wfMAAAAAMAg0uQAAAADIveZaTwAyKdVo3NURMbNGYwNQW7W69kREMeb34qvoriEzs0+hGio4FzbkcVkhmfVdTTPL6Xm42DHImXX7Vxa9kgtKWd15oFS7AGhctbr2FCJaprTWbOy8VkNmBtVQwbmwIY/LCktmOcssrwZ7j9ONJhcAAAAAuafJBQAAAEDuaXIBAAAAkHuaXAAAAADkniYXAAAAALmnyQUAAABA7mlyAQAAAJB7mlwAAAAA5J4mFwAAAAC5p8kFAAAAQO5pcgEAAACQe5pcAAAAAOSeJhcAAAAAuafJBQAAAEDuaXIBAAAAkHvNcUt1ByzG/OoOWAdk1ne5zWxVRLWPyQNym1kNyazvZNZ3Mus7mcEgqXCf4tjsG3kBh6nhz4t5kqpZLS2tVR2vHkpmMpNZNktmMpNZNktmMpNZNktm8pJZ9kpmMqu3zAqdgwEAAABArhSLB7/ytW47ePVSMpOZzLJZMpOZzLJZMpOZzLJZMpOXzLJXMpNZvWXmg+cBAAAAyD1NLijH0QFANTQf4TZAI3AuhPpTg+O60PmSrqppaWk97P2S9ExmfVdxZs0R8R8RccFAzgoADpEi4nsRcV5E/CoihkfEL2s9KYAqcy6E+tPtuG45sTWKO+cP/HFdOPwur1WBUsZGxH93HjQNUi1TWms+h7yVzGQms2xWrjJrioh1EfGhzuvP1Ij4PzLLQ8lMZvIawBqgc2FDZTZAJTOZDVpVY49TgiYXlHJiROys9SQAaAjrI2Ja5++ndd4GaDTOhVB/anBca3JBKSdGxI5aTwKAhrAuIj7S+fuP+MEOaFDOhVB/anBca3JBKeO8kguAKvlxRJzW+XmQH46I9lpPCKAGnAuh/nQd1+9X7bjW5IJSToyIXbWeBAAN4b8j4s2I+L3OX39W6wkB1IBzIdSfzuP6nY+9XLXjWpMLShn/m1dyvffee1EsFruqtbU1Zs6cGe+880688sorsXHjxrjqqqu6vnXkyJGxZMmS2LVrVxSLxbjzzjsjIuKGG26ITZs2xcaNG+OOO+6IIUOGxNChQ2PBggWxYcOG2Lx5cyxevDiGDRsWERFPP/10bNu2rWvcsWPHRkTEKaecEkuXLo2f/vSnXWPOmTPnoDnu2LEjVq9eXd3MAOi/9REx8/CX8d97772xZs2artt79uyJLVu2xCuvvBLPPPNMnHzyyV1/9nd/93fx8ssvH/T9o0ePjra2tti8eXNs2LAhJk+eHFHymtRU9trW1/sB+u2Qc2FP57wocY781reuK7l/Lvf1pfb5Rx11VMybNy86Ojpi8+bN8ZWvfCWamvb/2Fxqn28fDkewPuKd/3tL13Fdbm9ywKHHaV81VzpfqEvdPnh+z5490dLSctAfz5w5M5555pm4+OKLY/z48bF8+fJ466234uGHH462trZ4+eWXY8KECbFv374YN25cnH766XH11VfHxz72sfjlL38Z3/jGN+JTn/pU3HffffGNb3wjbrjhhigUCvHUU0/F7Nmz4+GHH44xY8bEGWeccVAzKzp/iHnooYfi93//97vue+SRR+KRRx7pun3jjTdGc7PDGyA3fhwRfxYRbb+5a+bMmXHCCScc9GVvv/12nHrqqRERcfvtt8f1118fN954Y0REXHrppfGrX/0qfud3fic2bNgQERGLFy+O9vb2+Iu/+ItIKUVElLwmzZ59Qqxfv7bkte3tt9/u0/0PP/xw9XID6ssh58KeznmlzpEf+MDRccYZHzls/1zu60vt85uammLz5s0xderU2LdvX6xcuTIuvPDCWL58ecl9/s6dO+3DoSc/jvj1/7MzYsX+m6X2JgeUOk4jIpqbm+Poo4+On//850ccziu54FDDIuKE3r+UcseOHfH3f//3ce2118b48ePj7LPPjn/8x3+MvXv3Rkopdu7cGR/60Ifiu9/9brzzzjvx/vvvx9e+9rW47LLLIiLiueeei5RSnHTSSTFmzJhob9//RuVRo0bF22+/fdh4V199dTz44INx1FFHlZxPU1NT/Pmf/3m0tbWV/HMAMmhdRBzf+WtEDB06NObNmxe33XZbyS8vFAoxcuTIeO211yIiYty4cTFixIhoa2uLOXPmdN03bdq0uPXWWw/aRJa6Jl144RkHPX73a1sl9wP0ySHnwgMOPeeVO0eOHDm85P75SOfU7t5///1YsmRJ7NmzJ/bu3RuvvvpqjBw5suw+vzv7cChhXcTeD/wiYl35vUkc4TidOnVq/PM//3OvhtPkgkMdGxEpIo7Zf3PYsGEHvQT53HPPPexb1q1bFx/60Ifit37rt2LTpk2xd+/eg/68vb09Pv7xj8fRRx8dQ4YMiSuvvDKOP/74iIgYO3ZsbNu2LV555ZVYtGhRvPTSSxERcdRRR8Wzzz4b69evj5tuuumwMQuFQsnpX3DBBdHe3n7YRReAjOt2Wv/iF78YS5cujTfeeOOgLzn22GNj06ZNsWvXrjjttNNi0aJFERFxySWXxGOPPRaPPvpoXHrppRERccYZZ8SWLVvim9/8ZqxevToWL14co0aNKnlN+sAHRhw2nQPXtkrvB+iTbufCcue8cufI5uYhJffP5b7+SPv8UaNGxaxZs+K73/1u2X1+d/bh0LNye5Po4TjtK00uONTYiNjT+Wu3lzEfqKeffvqwbxk+fHjs27cvhg0bFkOGDDnszzdt2hQLFiyIxx9/PFasWBFvvvlm10std+/eHZMmTYoJEybE5ZdfHpdccklEREyaNCnOJ3ZoUQAACYlJREFUOeecOPfcc+PKK6/s+j/zR3Lttdd2bQAAyIlpEbF7/69TpkyJ2bNnx8KFCw/7sp/97GcxderUGDduXPznf/5n/NM//VNE51sVH3300diyZUuMGjUqTjrppBg9enScdtppMXfu3JgxY0a8/PLLcfPNN5e8Jv3iF786bKwD17ZK7wfotW7nwihzzuvpHHnWWbcetn/u6et72ucPGTIklixZEnfffXds37697D6/O/twKGFaRPPbIyOmRdm9SbnjdOLEifGDH/wgli5dGp/4xCfiBz/4Qdxwww09DqfJBYc6ISL+p/PXXpo+fXq0t7fHSy+9FB/84AdLvsqqra0tZsyYEeeee268++678aMf/eigP3/zzTfjgQceiFmzZkVEdL18c/fu3fHQQw/FRz/60SPOY/LkyTF16tRYsWJF7ycPQO2dHhGb9/968cUXx8SJE6O9vT0ee+yxmD59ejz11FMHfXlKKR544IE488wzY8SIEXHRRRfFv//7v0exWIypU6fGJZdcErt27Ypnn302isViREQ8+eSTccYZ+9+WeOg1qb39tcOmdODaVun9AL3W7VzYXfdzXk/nyFL7596cUw9VKBRi8eLF8cYbb8S8efMiInrc54d9OJR3esTQjnERp0fZvUm543T79u1x5plnxmc/+9l4+OGH48wzz4y77rqrx+E0ueBQYzs/j2tsL742In77t387vvzlL8eCBQti27ZtsWnTprjpppuiqakpmpqaDvvgvGnTpsXVV18d99xzT4wZM6brwzSHDx8eF110UWzYsCFGjBgRJ510UkTny6TPO++8WLduXcnxu7vmmmuira3tsPc3A5BxH4mIVft/veuuu7p+WJo9e3asXbu263+AdDdr1qzYtGlTXHDBBXHvvffGySefHC0tLTFz5syYM2dOPP/88zF9+vSYMGFCREScf/75hzWhDlyT7r//hwfd3/3aVsn9AH3S7Vx4qAPnvHLnyBEjRsS4caMjDtk/9/acekChUIhFixbFvn374vOf/3zX/Ufa59uHQxkfiRjxnx+M+EiU3Zv09Tg9klTNamlprep49VAyq3Jm10eK2yLFdftvv/fee6lYLHZVa2trmjlzZnrnnXfS1q1b049//ON0xRVXdH3/iSeemJYtW5Z27tyZXn/99fRXf/VXKSLS7bffntrb29Nzzz2Xzj777BQRafLkyen5559P27dvT9u2bUv/9m//loYMGZLGjh2bnnvuuVQsFtPWrVvTrbfe2vX41157bXriiSdSSik98cQT6aqrrkoRkYYOHZq2b9+eTjzxROssD+usQUtmMpNZiRodKZZHiuZI8R+R4tjf/NnUqVPTmjVrum7v2bMnbdmyJf3kJz9Jzz77bJo0aVL6+te/ni6//PKur2lubk47d+5Mo0aNSrNmzUpr165NGzduTMuXL0/HHXdcihLXpJaW8te2vt7fKJW7dZaBkpm8eqwS58JS57zu39P9HDl27Nj04otbS+6fS319lNnnn3POOSmllHbt2pV27tyZdu7cmVauXJmih31+pftw6yxfJbM+VOdx3XLqF7qO63J7kwN16HHaj7Igsl4yq3Jmt3Y2uG6p/fPITWYNWjKTmcyyWbnL7OxI8c+dv7+j87bMMl8yk5m8BrgG4FzYcJkNQMlMZoNancd1S0tr1fY43q4IhzohIrb27TO5AKDfpkXE+s7fry/9Nh2AuudcCPWnBse1JhccamxEvNL7z+QCgIp8JCIOfOziOj/YAQ3KuRDqTw2O60KkSIM/DOREiognI+KSiFgWERfUekIA1LUUEd+LiPMi4lcRMTwiflnrSQFUmXMh1J9ux3XLia1R3Dl/4I/r0v/YaXXfk+n9qzLLfGZNh/zaIGWdyUxm2SyZNUBmzUe4LbNMlsxkJq8BrgE4FzZcZgNQMpPZoFbzIZlVYY9T6BwMAAAAAHKlWJx/0G1dz4yXzGQms2yWzGQms2yWzGQms2yWzOQls+yVzGRWb5n54HkAAAAAck+TCwAAAIDc0+QCAAAAIPc0uQAAAADIPU0uAAAAAHJPkwsAAACA3NPkAgAAACD3NLkAAAAAyD1NLgAAAAByT5MLAAAAgNzT5AIAAAAg9zS5AAAAAMg9TS4AAAAAck+TCwAAAIDc0+QCAAAAIPc0uQAAAADIPU0uAAAAAHJPkwsAAACA3NPkAgAAACD3NLkAAAAAyD1NLgAAAAByr9DS0ppqPQkAAAAA6Kticf5Bt1M1q7OppmQms4yVzGQms2yWzGQms2yWzGQmr+yVzGQms2xWNTPzdkUAAAAAck+TCwAAAIDcy16Tq5IXpq2q9eQr0MPzKnbMr9/nnUeVvoCykr+vRj0+yI8jrEPnM6iAawBZV8k1wBqlt+wzoLy87hUGcN7Za3KtjohCPyvPenjeLVNa6/d551Ela7TSv69GPT7IjyOsUeczqIBrAFlXyTUAesvPTVBeXvcKAzjv7DW5AAAAAKCPNLkAAAAAyD1NLgAAAAByT5MLAAAAgNzT5AIAAAAg9zS5AAAAAMg9TS4AAAAAck+TCwAAAIDc0+QCAAAAIPc0uQAAAADIPU0uAAAAAHJPkwsAAACA3NPkAgAAACD3NLkAAAAAyD1NLgAAAAByrzluqe6AxZg/eA++KqLazycTGvV592BQ11mlavX3dYRxM51ZRslsEDifHcY66zuZleAaMOBkNsCc/w9jjQ0C6+ww1lnf1W1mg3h8VDuzVM1qaWmt6nj1UDKTmcyyWTKTmcyyWTKTmcyyWTKTl8yyVzKTWb1lVugcDAAAAABypVg8+JViddvBq5eSmcxkls2Smcxkls2Smcxkls2Smbxklr2SmczqLTMfPA8AAABA7mlyAQAAAJB7mlwAAAAA5J4mFwAAAAC5p8kFAAAAQO5pcgEAAACQe5pcAAAAAOSeJhcAAAAAuafJBQAAAEDuaXIBAAAAkHuaXAAAAADkniYXAAAAALmnyQUAAABA7mlyAQAAAJB7mlwAAAAA5J4mFwAAAAC5p8kFAAAAQO5pcgEAAACQe5pcAAAAAOReIW6JVOtJAAAAAECf3XLwzVTNamlprep49VAyk5nMslkyk5nMslkyk5nMslkyk5fMslcyk1m9ZVboHAwAAAAAcqVYnH/Q7brt4NVLyUxmMstmyUxmMstmyUxmMstmyUxeMsteyUxm9ZaZD54HAAAAIPc0uQAAAADIPU0uAAAAAHJPkwsAAACA3NPkAgAAACD3NLkAAAAAyL3/Hx9ARxH0/4bjAAAAAElFTkSuQmCC;" vertex="1" parent="1">
          <mxGeometry x="58" y="302" width="1209" height="282" as="geometry" />
        </mxCell>
      </root>
    </mxGraphModel>
  </diagram>
</mxfile>
